<svg width="118" height="145" viewBox="0 0 118 145" fill="none" xmlns="http://www.w3.org/2000/svg">
<path d="M114.677 70.5309L114.677 70.5311C102.617 93.942 81.6059 108.248 59.0012 108.248C50.9259 108.248 43.0488 106.364 35.6907 102.926L35.2387 102.715L35.0265 103.166L18.7805 137.743L6.49518 144.19L6.72751 144.632L6.49516 144.19C5.54606 144.688 4.54335 144.563 3.72483 143.982C2.89769 143.395 2.25044 142.33 2.11552 140.959L0.511041 124.599L16.8807 89.7601L17.0278 89.4469L16.7865 89.1988C11.9098 84.1859 7.53171 78.3979 3.96693 71.7472L3.96684 71.7471C3.4542 70.7915 3.33423 69.6441 3.5559 68.5821C3.77801 67.5179 4.33314 66.5837 5.11575 66.0275L5.116 66.0274L11.5116 61.4764C12.2386 60.9592 13.0316 60.8605 13.7614 61.0909C14.5003 61.3241 15.2107 61.9079 15.711 62.8191C17.9697 66.9337 20.6209 70.6395 23.5362 73.9534L24.0399 74.526L24.3641 73.8358L40.1055 40.3305L40.2026 40.1238L40.1099 39.9149C38.4209 36.1128 37.3757 31.8204 37.3757 27.1871C37.3757 12.3468 47.1489 0.5 59.0012 0.5C70.8534 0.5 80.6266 12.3468 80.6266 27.1871C80.6266 31.8204 79.5815 36.1127 77.8902 39.9147L77.7973 40.1236L77.8945 40.3306L89.697 65.4517C84.5784 71.6948 78.3482 76.2466 71.503 78.7534L59.9216 54.1021L59.7812 53.8032L59.4512 53.815C59.3379 53.819 59.2307 53.8389 59.1621 53.8515C59.1561 53.8526 59.1503 53.8537 59.1449 53.8547C59.0651 53.8693 59.0286 53.8742 58.9988 53.8742C58.9693 53.8742 58.9336 53.8694 58.854 53.8548C58.8488 53.8538 58.8433 53.8528 58.8375 53.8517C58.7686 53.8389 58.6612 53.819 58.5462 53.815L58.2165 53.8034L58.0761 54.1021L42.5515 87.1457L42.3266 87.6243L42.817 87.822C47.9788 89.9039 53.4124 91.1236 59.0012 91.1236C76.7959 91.1236 93.2569 79.9845 102.8 61.8627C103.286 60.9406 103.988 60.3401 104.724 60.0899C105.451 59.8428 106.244 59.9239 106.976 60.4229L107.258 60.0098L106.976 60.423L113.445 64.8324L113.446 64.8325C114.236 65.3705 114.805 66.292 115.043 67.3518C115.28 68.4095 115.177 69.5613 114.677 70.5309ZM99.2196 137.74L86.9666 111.662C93.5477 108.385 99.6305 103.837 105.177 98.3926L117.489 124.596L115.884 140.956C115.884 140.956 115.884 140.956 115.884 140.956C115.75 142.327 115.102 143.392 114.275 143.979C113.457 144.56 112.454 144.685 111.505 144.187L111.272 144.63L111.505 144.187L99.2196 137.74ZM66.8763 27.1871C66.8763 22.008 63.4411 17.6247 59.0012 17.6247C54.5612 17.6247 51.126 22.008 51.126 27.1871C51.126 32.3661 54.5612 36.7494 59.0012 36.7494C63.4411 36.7494 66.8763 32.3661 66.8763 27.1871Z" fill="url(#paint0_linear_5_54)" stroke="white"/>
<defs>
<linearGradient id="paint0_linear_5_54" x1="59" y1="0" x2="59" y2="145" gradientUnits="userSpaceOnUse">
<stop offset="0.442708" stop-color="#FF6B6B"/>
<stop offset="0.677083" stop-color="#EA8484" stop-opacity="0.848958"/>
<stop offset="1" stop-color="#29009C" stop-opacity="0"/>
</linearGradient>
</defs>
</svg>
