<svg width="70" height="68" viewBox="0 0 70 68" fill="none" xmlns="http://www.w3.org/2000/svg">
<path d="M47.7097 33.595L67.3797 14.4936C69.7935 12.1496 69.7935 8.34912 67.3797 6.0032L63.0081 1.75801C60.5943 -0.586004 56.6808 -0.586004 54.265 1.75801L34.595 20.8594L14.925 1.75801C12.5112 -0.586004 8.59764 -0.586004 6.18189 1.75801L1.81034 6.0032C-0.603447 8.34721 -0.603447 12.1476 1.81034 14.4936L21.4804 33.595L1.81034 52.6964C-0.603447 55.0404 -0.603447 58.8409 1.81034 61.1868L6.18189 65.432C8.59568 67.776 12.5112 67.776 14.925 65.432L34.595 46.3306L54.265 65.432C56.6788 67.776 60.5943 67.776 63.0081 65.432L67.3797 61.1868C69.7935 58.8428 69.7935 55.0424 67.3797 52.6964L47.7097 33.595Z" fill="white"/>
</svg>
